<svg width="138" height="27" viewBox="0 0 138 27" fill="none" xmlns="http://www.w3.org/2000/svg">
<path id="Vector" d="M0.492398 0.221176H23.4358L12.7397 18.8928H23.4852L25.3988 26.3609H0L10.5874 7.6892H2.40435L0.492398 0.221176ZM26.3787 0.221176H34.6605V15.5085C34.6605 16.5276 34.9607 17.3636 35.5613 18.0163C36.1618 18.669 36.966 18.9942 37.9739 18.9921C38.9817 18.9921 39.7919 18.6668 40.4046 18.0163C41.0172 17.3657 41.3235 16.5298 41.3235 15.5085V0.221176H49.6069V15.5491C49.6185 17.0702 49.3564 18.5812 48.8329 20.0117C48.3387 21.3631 47.566 22.5986 46.5636 23.64C45.5289 24.6969 44.285 25.5323 42.9094 26.0941C41.4689 26.698 39.8221 27 37.9689 27C36.1157 27 34.4689 26.698 33.0285 26.0941C31.6679 25.5483 30.4398 24.7241 29.4251 23.6757C28.4104 22.6273 27.632 21.3786 27.1411 20.0117C26.6169 18.5814 26.3548 17.0703 26.3671 15.5491L26.3787 0.221176ZM65.3241 0.221176C66.6035 0.208805 67.8784 0.373024 69.1118 0.709069C70.1539 0.986376 71.1345 1.45296 72.0036 2.08493C72.7954 2.67401 73.432 3.44269 73.8596 4.32599C74.3048 5.27853 74.5261 6.31821 74.5068 7.36718C74.5108 7.93344 74.4258 8.49689 74.2548 9.03741C74.0979 9.53604 73.88 10.0139 73.6059 10.4604C73.3601 10.8636 73.0708 11.2393 72.743 11.581C72.4778 11.8632 72.1747 12.1083 71.8422 12.3095C72.9484 12.9291 73.8824 13.809 74.5611 14.871C75.2504 15.9567 75.6067 17.2163 75.5871 18.4976C75.5871 20.9404 74.7351 22.8605 73.0312 24.258C71.3273 25.6556 68.912 26.3554 65.7852 26.3576H52.8281V0.221176H65.3241ZM66.4044 8.51536C66.4171 8.25145 66.3665 7.98832 66.2569 7.74731C66.1473 7.50629 65.9818 7.29416 65.7737 7.12812C65.3847 6.80719 64.894 6.6311 64.3871 6.63047H61.1116V10.371H64.5699C65.0293 10.3591 65.4695 10.1862 65.8116 9.88309C66.2068 9.56325 66.4044 9.10462 66.4044 8.50723V8.51536ZM67.1603 17.948C67.1747 17.6632 67.1227 17.3789 67.0085 17.117C66.8944 16.8551 66.7209 16.6226 66.5016 16.4371C66.017 16.056 65.4095 15.8602 64.7906 15.8858H61.1182V19.976H64.7906C65.4065 20.0013 66.012 19.8125 66.5016 19.4425C66.7238 19.2595 66.8992 19.0273 67.0137 18.7648C67.1281 18.5023 67.1784 18.2169 67.1603 17.9317V17.948ZM86.1876 26.3771H78.6699V8.81297H86.1876V26.3771ZM114.773 0.221176H123.055V15.406C123.055 16.4252 123.355 17.2611 123.956 17.9138C124.556 18.5665 125.36 18.8918 126.368 18.8896C127.376 18.8896 128.186 18.5643 128.799 17.9138C129.411 17.2633 129.717 16.4274 129.716 15.406V0.221176H138V15.4418C138.011 16.9634 137.749 18.4749 137.226 19.906C136.731 21.257 135.959 22.4919 134.956 23.5327C133.922 24.5914 132.678 25.4284 131.302 25.9917C129.862 26.5967 128.215 26.8992 126.362 26.8992C124.508 26.8992 122.862 26.5967 121.421 25.9917C120.061 25.4458 118.833 24.6218 117.818 23.5737C116.804 22.5257 116.025 21.2774 115.534 19.9109C115.01 18.48 114.748 16.9683 114.76 15.4467L114.773 0.221176ZM88.8867 0.221176H111.83L101.126 18.8928H111.871L113.783 26.3609H88.3943L98.9817 7.6892H90.7987L88.8867 0.221176ZM86.1876 5.9035V0H77.583L79.1689 5.9035H86.1876Z" fill="url(#paint0_linear_9212_80540)"/>
<defs>
<linearGradient id="paint0_linear_9212_80540" x1="117.299" y1="37.1276" x2="79.9925" y2="-39.1324" gradientUnits="userSpaceOnUse">
<stop offset="0.1" stop-color="#614FF0"/>
<stop offset="0.51" stop-color="#C01FC4"/>
<stop offset="0.9" stop-color="#EE2D67"/>
</linearGradient>
</defs>
</svg>
